<svg id="graph" xmlns="http://www.w3.org/2000/svg" viewBox="0 0 1430 1250"><defs><clipPath id="clipPath"><rect x="100" y="80" width="1280" height="1040"></rect></clipPath><clipPath id="yAxisClipPath"><rect x="0" y="80" width="100" height="1050"></rect></clipPath><clipPath id="xAxisClipPath"><rect x="-1240" y="65" width="130" height="1320"></rect></clipPath></defs><g transform="translate(0.5,0.5)"><line stroke="#000000" stroke-width="1" clip-path="url(#clipPath)" x1="100" y1="80" x2="100" y2="1120"></line><line stroke="#808080" stroke-width="1" clip-path="url(#clipPath)" x1="140" y1="80" x2="140" y2="1120"></line><line stroke="#808080" stroke-width="1" clip-path="url(#clipPath)" x1="180" y1="80" x2="180" y2="1120"></line><line stroke="#808080" stroke-width="1" clip-path="url(#clipPath)" x1="220" y1="80" x2="220" y2="1120"></line><line stroke="#808080" stroke-width="1" clip-path="url(#clipPath)" x1="260" y1="80" x2="260" y2="1120"></line><line stroke="#808080" stroke-width="1" clip-path="url(#clipPath)" x1="300" y1="80" x2="300" y2="1120"></line><line stroke="#808080" stroke-width="1" clip-path="url(#clipPath)" x1="340" y1="80" x2="340" y2="1120"></line><line stroke="#808080" stroke-width="1" clip-path="url(#clipPath)" x1="380" y1="80" x2="380" y2="1120"></line><line stroke="#808080" stroke-width="1" clip-path="url(#clipPath)" x1="420" y1="80" x2="420" y2="1120"></line><line stroke="#808080" stroke-width="1" clip-path="url(#clipPath)" x1="460" y1="80" x2="460" y2="1120"></line><line stroke="#808080" stroke-width="1" clip-path="url(#clipPath)" x1="500" y1="80" x2="500" y2="1120"></line><line stroke="#808080" stroke-width="1" clip-path="url(#clipPath)" x1="540" y1="80" x2="540" y2="1120"></line><line stroke="#808080" stroke-width="1" clip-path="url(#clipPath)" x1="580" y1="80" x2="580" y2="1120"></line><line stroke="#808080" stroke-width="1" clip-path="url(#clipPath)" x1="620" y1="80" x2="620" y2="1120"></line><line stroke="#808080" stroke-width="1" clip-path="url(#clipPath)" x1="660" y1="80" x2="660" y2="1120"></line><line stroke="#808080" stroke-width="1" clip-path="url(#clipPath)" x1="700" y1="80" x2="700" y2="1120"></line><line stroke="#808080" stroke-width="1" clip-path="url(#clipPath)" x1="740" y1="80" x2="740" y2="1120"></line><line stroke="#808080" stroke-width="1" clip-path="url(#clipPath)" x1="780" y1="80" x2="780" y2="1120"></line><line stroke="#808080" stroke-width="1" clip-path="url(#clipPath)" x1="820" y1="80" x2="820" y2="1120"></line><line stroke="#808080" stroke-width="1" clip-path="url(#clipPath)" x1="860" y1="80" x2="860" y2="1120"></line><line stroke="#808080" stroke-width="1" clip-path="url(#clipPath)" x1="900" y1="80" x2="900" y2="1120"></line><line stroke="#808080" stroke-width="1" clip-path="url(#clipPath)" x1="940" y1="80" x2="940" y2="1120"></line><line stroke="#808080" stroke-width="1" clip-path="url(#clipPath)" x1="980" y1="80" x2="980" y2="1120"></line><line stroke="#808080" stroke-width="1" clip-path="url(#clipPath)" x1="1020" y1="80" x2="1020" y2="1120"></line><line stroke="#808080" stroke-width="1" clip-path="url(#clipPath)" x1="1060" y1="80" x2="1060" y2="1120"></line><line stroke="#808080" stroke-width="1" clip-path="url(#clipPath)" x1="1100" y1="80" x2="1100" y2="1120"></line><line stroke="#808080" stroke-width="1" clip-path="url(#clipPath)" x1="1140" y1="80" x2="1140" y2="1120"></line><line stroke="#808080" stroke-width="1" clip-path="url(#clipPath)" x1="1180" y1="80" x2="1180" y2="1120"></line><line stroke="#808080" stroke-width="1" clip-path="url(#clipPath)" x1="1220" y1="80" x2="1220" y2="1120"></line><line stroke="#808080" stroke-width="1" clip-path="url(#clipPath)" x1="1260" y1="80" x2="1260" y2="1120"></line><line stroke="#808080" stroke-width="1" clip-path="url(#clipPath)" x1="1300" y1="80" x2="1300" y2="1120"></line><line stroke="#808080" stroke-width="1" clip-path="url(#clipPath)" x1="1340" y1="80" x2="1340" y2="1120"></line><line stroke="#808080" stroke-width="1" clip-path="url(#clipPath)" x1="1380" y1="80" x2="1380" y2="1120"></line><line stroke="#808080" stroke-width="1" clip-path="url(#clipPath)" x1="100" y1="80" x2="1380" y2="80"></line><line stroke="#808080" stroke-width="1" clip-path="url(#clipPath)" x1="100" y1="120" x2="1380" y2="120"></line><line stroke="#808080" stroke-width="1" clip-path="url(#clipPath)" x1="100" y1="160" x2="1380" y2="160"></line><line stroke="#808080" stroke-width="1" clip-path="url(#clipPath)" x1="100" y1="200" x2="1380" y2="200"></line><line stroke="#808080" stroke-width="1" clip-path="url(#clipPath)" x1="100" y1="240" x2="1380" y2="240"></line><line stroke="#808080" stroke-width="1" clip-path="url(#clipPath)" x1="100" y1="280" x2="1380" y2="280"></line><line stroke="#808080" stroke-width="1" clip-path="url(#clipPath)" x1="100" y1="320" x2="1380" y2="320"></line><line stroke="#808080" stroke-width="1" clip-path="url(#clipPath)" x1="100" y1="360" x2="1380" y2="360"></line><line stroke="#808080" stroke-width="1" clip-path="url(#clipPath)" x1="100" y1="400" x2="1380" y2="400"></line><line stroke="#808080" stroke-width="1" clip-path="url(#clipPath)" x1="100" y1="440" x2="1380" y2="440"></line><line stroke="#808080" stroke-width="1" clip-path="url(#clipPath)" x1="100" y1="480" x2="1380" y2="480"></line><line stroke="#808080" stroke-width="1" clip-path="url(#clipPath)" x1="100" y1="520" x2="1380" y2="520"></line><line stroke="#808080" stroke-width="1" clip-path="url(#clipPath)" x1="100" y1="560" x2="1380" y2="560"></line><line stroke="#808080" stroke-width="1" clip-path="url(#clipPath)" x1="100" y1="600" x2="1380" y2="600"></line><line stroke="#808080" stroke-width="1" clip-path="url(#clipPath)" x1="100" y1="640" x2="1380" y2="640"></line><line stroke="#808080" stroke-width="1" clip-path="url(#clipPath)" x1="100" y1="680" x2="1380" y2="680"></line><line stroke="#808080" stroke-width="1" clip-path="url(#clipPath)" x1="100" y1="720" x2="1380" y2="720"></line><line stroke="#808080" stroke-width="1" clip-path="url(#clipPath)" x1="100" y1="760" x2="1380" y2="760"></line><line stroke="#808080" stroke-width="1" clip-path="url(#clipPath)" x1="100" y1="800" x2="1380" y2="800"></line><line stroke="#808080" stroke-width="1" clip-path="url(#clipPath)" x1="100" y1="840" x2="1380" y2="840"></line><line stroke="#808080" stroke-width="1" clip-path="url(#clipPath)" x1="100" y1="880" x2="1380" y2="880"></line><line stroke="#808080" stroke-width="1" clip-path="url(#clipPath)" x1="100" y1="920" x2="1380" y2="920"></line><line stroke="#808080" stroke-width="1" clip-path="url(#clipPath)" x1="100" y1="960" x2="1380" y2="960"></line><line stroke="#808080" stroke-width="1" clip-path="url(#clipPath)" x1="100" y1="1000" x2="1380" y2="1000"></line><line stroke="#808080" stroke-width="1" clip-path="url(#clipPath)" x1="100" y1="1040" x2="1380" y2="1040"></line><line stroke="#808080" stroke-width="1" clip-path="url(#clipPath)" x1="100" y1="1080" x2="1380" y2="1080"></line><line stroke="#000000" stroke-width="1" clip-path="url(#clipPath)" x1="100" y1="1120" x2="1380" y2="1120"></line><polyline fill="none" stroke="#FFFF00" stroke-width="4" clip-path="url(#clipPath)" points="100,168 140,168 180,168 220,168 260,164 300,160 340,160 380,160 420,168 460,168 500,168 540,168 580,160 620,160 660,160 700,160 740,160 780,160 820,160 860,160 900,160 940,160 980,160 1020,160 1060,160 1100,160 1140,160 1180,160 1220,160 1260,160 1300,160 1340,160 1380,160"></polyline><polyline fill="none" stroke="#FFFF00" stroke-width="4" clip-path="url(#clipPath)" points="100,256 140,256 180,256 220,256 260,256 300,256 340,256 380,256 420,264 460,264 500,264 540,264 580,256 620,256 660,256 700,256 740,256 780,256 820,256 860,256 900,256 940,256 980,256 1020,256 1060,256 1100,256 1140,256 1180,256 1220,256 1260,256 1300,256 1340,256 1380,256"></polyline><polyline fill="none" stroke="#FFFF00" stroke-width="4" clip-path="url(#clipPath)" points="100,352 140,352 180,352 220,352 260,352 300,352 340,352 380,352 420,360 460,360 500,360 540,360 580,352 620,352 660,352 700,352 740,352 780,352 820,352 860,352 900,352 940,352 980,352 1020,352 1060,352 1100,352 1140,352 1180,352 1220,352 1260,352 1300,352 1340,352 1380,352"></polyline><polyline fill="none" stroke="#FFFF00" stroke-width="4" clip-path="url(#clipPath)" points="100,448 140,448 180,448 220,448 260,448 300,448 340,448 380,448 420,452 460,448 500,448 540,448 580,440 620,448 660,448 700,448 740,448 780,448 820,448 860,448 900,448 940,448 980,448 1020,448 1060,448 1100,448 1140,448 1180,448 1220,448 1260,448 1300,448 1340,448 1380,448"></polyline><polyline fill="none" stroke="#FFFF00" stroke-width="4" clip-path="url(#clipPath)" points="100,536 140,536 180,536 220,536 260,536 300,536 340,536 380,536 420,540 460,536 500,536 540,536 580,528 620,536 660,536 700,536 740,536 780,536 820,536 860,536 900,536 940,536 980,536 1020,544 1060,544 1100,544 1140,544 1180,544 1220,544 1260,544 1300,544 1340,544 1380,544"></polyline><polyline fill="none" stroke="#FFFF00" stroke-width="4" clip-path="url(#clipPath)" points="100,704 140,792 180,792 220,800 260,800 300,800 340,800 380,800 420,804 460,800 500,800 540,800 580,792 620,800 660,800 700,800 740,804 780,804 820,804 860,812 900,812 940,712 980,712 1020,720 1060,720 1100,720 1140,720 1180,720 1220,720 1260,720 1300,720 1340,720 1380,720"></polyline><polyline fill="none" stroke="#FFFF00" stroke-width="4" clip-path="url(#clipPath)" points="100,952 140,1108 180,1128 220,1120 260,1172 300,1152 340,1152 380,1152 420,1156 460,1148 500,1148 540,1148 580,1140 620,1152 660,1152 700,1152 740,1156 780,1156 820,1156 860,1268 900,1268 940,976 980,976 1020,984 1060,980 1100,984 1140,984 1180,984 1220,984 1260,984 1300,984 1340,984 1380,984"></polyline><polyline fill="none" stroke="#8000FF" stroke-width="6" stroke-linecap="square" clip-path="url(#clipPath)" points="100,852 140,1084 180,844 220,868 260,804 300,600 340,540 380,576 420,556 460,540 500,480 540,512 580,520 620,516 660,500 700,492 740,472 780,508 820,536 860,564 900,756 940,956 980,1044 1020,1028 1060,984 1100,724 1140,556 1180,596 1220,596 1260,564 1300,580 1340,480 1380,468"></polyline><circle r="10" fill="#A060FF" stroke="#FF0080" stroke-width="4" opacity="0" cx="100" cy="852"></circle><circle r="10" fill="#A060FF" stroke="#FF0080" stroke-width="4" opacity="0" cx="140" cy="1084"></circle><circle r="10" fill="#A060FF" stroke="#FF0080" stroke-width="4" opacity="0" cx="180" cy="844"></circle><circle r="10" fill="#A060FF" stroke="#FF0080" stroke-width="4" opacity="0" cx="220" cy="868"></circle><circle r="10" fill="#A060FF" stroke="#FF0080" stroke-width="4" opacity="0" cx="260" cy="804"></circle><circle r="10" fill="#A060FF" stroke="#FF0080" stroke-width="4" opacity="0" cx="300" cy="600"></circle><circle r="10" fill="#A060FF" stroke="#FF0080" stroke-width="4" opacity="0" cx="340" cy="540"></circle><circle r="10" fill="#A060FF" stroke="#FF0080" stroke-width="4" opacity="0" cx="380" cy="576"></circle><circle r="10" fill="#A060FF" stroke="#FF0080" stroke-width="4" opacity="0" cx="420" cy="556"></circle><circle r="10" fill="#A060FF" stroke="#FF0080" stroke-width="4" opacity="0" cx="460" cy="540"></circle><circle r="10" fill="#A060FF" stroke="#FF0080" stroke-width="4" opacity="0" cx="500" cy="480"></circle><circle r="10" fill="#A060FF" stroke="#FF0080" stroke-width="4" opacity="0" cx="540" cy="512"></circle><circle r="10" fill="#A060FF" stroke="#FF0080" stroke-width="4" opacity="0" cx="580" cy="520"></circle><circle r="10" fill="#A060FF" stroke="#FF0080" stroke-width="4" opacity="0" cx="620" cy="516"></circle><circle r="10" fill="#A060FF" stroke="#FF0080" stroke-width="4" opacity="0" cx="660" cy="500"></circle><circle r="10" fill="#A060FF" stroke="#FF0080" stroke-width="4" opacity="0" cx="700" cy="492"></circle><circle r="10" fill="#A060FF" stroke="#FF0080" stroke-width="4" opacity="0" cx="740" cy="472"></circle><circle r="10" fill="#A060FF" stroke="#FF0080" stroke-width="4" opacity="0" cx="780" cy="508"></circle><circle r="10" fill="#A060FF" stroke="#FF0080" stroke-width="4" opacity="0" cx="820" cy="536"></circle><circle r="10" fill="#A060FF" stroke="#FF0080" stroke-width="4" opacity="0" cx="860" cy="564"></circle><circle r="10" fill="#A060FF" stroke="#FF0080" stroke-width="4" opacity="0" cx="900" cy="756"></circle><circle r="10" fill="#A060FF" stroke="#FF0080" stroke-width="4" opacity="0" cx="940" cy="956"></circle><circle r="10" fill="#A060FF" stroke="#FF0080" stroke-width="4" opacity="0" cx="980" cy="1044"></circle><circle r="10" fill="#A060FF" stroke="#FF0080" stroke-width="4" opacity="0" cx="1020" cy="1028"></circle><circle r="10" fill="#A060FF" stroke="#FF0080" stroke-width="4" opacity="0" cx="1060" cy="984"></circle><circle r="10" fill="#A060FF" stroke="#FF0080" stroke-width="4" opacity="0" cx="1100" cy="724"></circle><circle r="10" fill="#A060FF" stroke="#FF0080" stroke-width="4" opacity="0" cx="1140" cy="556"></circle><circle r="10" fill="#A060FF" stroke="#FF0080" stroke-width="4" opacity="0" cx="1180" cy="596"></circle><circle r="10" fill="#A060FF" stroke="#FF0080" stroke-width="4" opacity="0" cx="1220" cy="596"></circle><circle r="10" fill="#A060FF" stroke="#FF0080" stroke-width="4" opacity="0" cx="1260" cy="564"></circle><circle r="10" fill="#A060FF" stroke="#FF0080" stroke-width="4" opacity="0" cx="1300" cy="580"></circle><circle r="10" fill="#A060FF" stroke="#FF0080" stroke-width="4" opacity="0" cx="1340" cy="480"></circle><circle r="10" fill="#A060FF" stroke="#FF0080" stroke-width="4" opacity="0" cx="1380" cy="468"></circle><text style="font-size:28px;line-height:125%;fill:#000000;fill-opacity:1;stroke:none;font-family:Arial" clip-path="url(#yAxisClipPath)" y="170" x="59">20</text><text style="font-size:28px;line-height:125%;fill:#000000;fill-opacity:1;stroke:none;font-family:Arial" clip-path="url(#yAxisClipPath)" y="250" x="59">40</text><text style="font-size:28px;line-height:125%;fill:#000000;fill-opacity:1;stroke:none;font-family:Arial" clip-path="url(#yAxisClipPath)" y="330" x="59">60</text><text style="font-size:28px;line-height:125%;fill:#000000;fill-opacity:1;stroke:none;font-family:Arial" clip-path="url(#yAxisClipPath)" y="410" x="59">80</text><text style="font-size:28px;line-height:125%;fill:#000000;fill-opacity:1;stroke:none;font-family:Arial" clip-path="url(#yAxisClipPath)" y="490" x="43">100</text><text style="font-size:28px;line-height:125%;fill:#000000;fill-opacity:1;stroke:none;font-family:Arial" clip-path="url(#yAxisClipPath)" y="570" x="43">120</text><text style="font-size:28px;line-height:125%;fill:#000000;fill-opacity:1;stroke:none;font-family:Arial" clip-path="url(#yAxisClipPath)" y="650" x="43">140</text><text style="font-size:28px;line-height:125%;fill:#000000;fill-opacity:1;stroke:none;font-family:Arial" clip-path="url(#yAxisClipPath)" y="730" x="43">160</text><text style="font-size:28px;line-height:125%;fill:#000000;fill-opacity:1;stroke:none;font-family:Arial" clip-path="url(#yAxisClipPath)" y="810" x="43">180</text><text style="font-size:28px;line-height:125%;fill:#000000;fill-opacity:1;stroke:none;font-family:Arial" clip-path="url(#yAxisClipPath)" y="890" x="43">200</text><text style="font-size:28px;line-height:125%;fill:#000000;fill-opacity:1;stroke:none;font-family:Arial" clip-path="url(#yAxisClipPath)" y="970" x="43">220</text><text style="font-size:28px;line-height:125%;fill:#000000;fill-opacity:1;stroke:none;font-family:Arial" clip-path="url(#yAxisClipPath)" y="1050" x="43">240</text><text style="font-size:28px;line-height:125%;fill:#000000;fill-opacity:1;stroke:none;font-family:Arial" clip-path="url(#yAxisClipPath)" y="1130" x="43">260</text><text x="-1240" style="font-size:28px;line-height:125%;fill:#000000;fill-opacity:1;stroke:none;font-family:Arial" transform="matrix(0,-1,1,0,0,0)" clip-path="url(#xAxisClipPath)" y="105">1983-84</text><text x="-1240" style="font-size:28px;line-height:125%;fill:#000000;fill-opacity:1;stroke:none;font-family:Arial" transform="matrix(0,-1,1,0,0,0)" clip-path="url(#xAxisClipPath)" y="145">1984-85</text><text x="-1240" style="font-size:28px;line-height:125%;fill:#000000;fill-opacity:1;stroke:none;font-family:Arial" transform="matrix(0,-1,1,0,0,0)" clip-path="url(#xAxisClipPath)" y="185">1985-86</text><text x="-1240" style="font-size:28px;line-height:125%;fill:#000000;fill-opacity:1;stroke:none;font-family:Arial" transform="matrix(0,-1,1,0,0,0)" clip-path="url(#xAxisClipPath)" y="225">1986-87</text><text x="-1240" style="font-size:28px;line-height:125%;fill:#000000;fill-opacity:1;stroke:none;font-family:Arial" transform="matrix(0,-1,1,0,0,0)" clip-path="url(#xAxisClipPath)" y="265">1987-88</text><text x="-1240" style="font-size:28px;line-height:125%;fill:#000000;fill-opacity:1;stroke:none;font-family:Arial" transform="matrix(0,-1,1,0,0,0)" clip-path="url(#xAxisClipPath)" y="305">1988-89</text><text x="-1240" style="font-size:28px;line-height:125%;fill:#000000;fill-opacity:1;stroke:none;font-family:Arial" transform="matrix(0,-1,1,0,0,0)" clip-path="url(#xAxisClipPath)" y="345">1989-90</text><text x="-1240" style="font-size:28px;line-height:125%;fill:#000000;fill-opacity:1;stroke:none;font-family:Arial" transform="matrix(0,-1,1,0,0,0)" clip-path="url(#xAxisClipPath)" y="385">1990-91</text><text x="-1240" style="font-size:28px;line-height:125%;fill:#000000;fill-opacity:1;stroke:none;font-family:Arial" transform="matrix(0,-1,1,0,0,0)" clip-path="url(#xAxisClipPath)" y="425">1991-92</text><text x="-1240" style="font-size:28px;line-height:125%;fill:#000000;fill-opacity:1;stroke:none;font-family:Arial" transform="matrix(0,-1,1,0,0,0)" clip-path="url(#xAxisClipPath)" y="465">1992-93</text><text x="-1240" style="font-size:28px;line-height:125%;fill:#000000;fill-opacity:1;stroke:none;font-family:Arial" transform="matrix(0,-1,1,0,0,0)" clip-path="url(#xAxisClipPath)" y="505">1993-94</text><text x="-1240" style="font-size:28px;line-height:125%;fill:#000000;fill-opacity:1;stroke:none;font-family:Arial" transform="matrix(0,-1,1,0,0,0)" clip-path="url(#xAxisClipPath)" y="545">1994-95</text><text x="-1240" style="font-size:28px;line-height:125%;fill:#000000;fill-opacity:1;stroke:none;font-family:Arial" transform="matrix(0,-1,1,0,0,0)" clip-path="url(#xAxisClipPath)" y="585">1995-96</text><text x="-1240" style="font-size:28px;line-height:125%;fill:#000000;fill-opacity:1;stroke:none;font-family:Arial" transform="matrix(0,-1,1,0,0,0)" clip-path="url(#xAxisClipPath)" y="625">1996-97</text><text x="-1240" style="font-size:28px;line-height:125%;fill:#000000;fill-opacity:1;stroke:none;font-family:Arial" transform="matrix(0,-1,1,0,0,0)" clip-path="url(#xAxisClipPath)" y="665">1997-98</text><text x="-1240" style="font-size:28px;line-height:125%;fill:#000000;fill-opacity:1;stroke:none;font-family:Arial" transform="matrix(0,-1,1,0,0,0)" clip-path="url(#xAxisClipPath)" y="705">1998-99</text><text x="-1240" style="font-size:28px;line-height:125%;fill:#000000;fill-opacity:1;stroke:none;font-family:Arial" transform="matrix(0,-1,1,0,0,0)" clip-path="url(#xAxisClipPath)" y="745">1999-00</text><text x="-1240" style="font-size:28px;line-height:125%;fill:#000000;fill-opacity:1;stroke:none;font-family:Arial" transform="matrix(0,-1,1,0,0,0)" clip-path="url(#xAxisClipPath)" y="785">2000-01</text><text x="-1240" style="font-size:28px;line-height:125%;fill:#000000;fill-opacity:1;stroke:none;font-family:Arial" transform="matrix(0,-1,1,0,0,0)" clip-path="url(#xAxisClipPath)" y="825">2001-02</text><text x="-1240" style="font-size:28px;line-height:125%;fill:#000000;fill-opacity:1;stroke:none;font-family:Arial" transform="matrix(0,-1,1,0,0,0)" clip-path="url(#xAxisClipPath)" y="865">2002-03</text><text x="-1240" style="font-size:28px;line-height:125%;fill:#000000;fill-opacity:1;stroke:none;font-family:Arial" transform="matrix(0,-1,1,0,0,0)" clip-path="url(#xAxisClipPath)" y="905">2003-04</text><text x="-1240" style="font-size:28px;line-height:125%;fill:#000000;fill-opacity:1;stroke:none;font-family:Arial" transform="matrix(0,-1,1,0,0,0)" clip-path="url(#xAxisClipPath)" y="945">2004-05</text><text x="-1240" style="font-size:28px;line-height:125%;fill:#000000;fill-opacity:1;stroke:none;font-family:Arial" transform="matrix(0,-1,1,0,0,0)" clip-path="url(#xAxisClipPath)" y="985">2005-06</text><text x="-1240" style="font-size:28px;line-height:125%;fill:#000000;fill-opacity:1;stroke:none;font-family:Arial" transform="matrix(0,-1,1,0,0,0)" clip-path="url(#xAxisClipPath)" y="1025">2006-07</text><text x="-1240" style="font-size:28px;line-height:125%;fill:#000000;fill-opacity:1;stroke:none;font-family:Arial" transform="matrix(0,-1,1,0,0,0)" clip-path="url(#xAxisClipPath)" y="1065">2007-08</text><text x="-1240" style="font-size:28px;line-height:125%;fill:#000000;fill-opacity:1;stroke:none;font-family:Arial" transform="matrix(0,-1,1,0,0,0)" clip-path="url(#xAxisClipPath)" y="1105">2008-09</text><text x="-1240" style="font-size:28px;line-height:125%;fill:#000000;fill-opacity:1;stroke:none;font-family:Arial" transform="matrix(0,-1,1,0,0,0)" clip-path="url(#xAxisClipPath)" y="1145">2009-10</text><text x="-1240" style="font-size:28px;line-height:125%;fill:#000000;fill-opacity:1;stroke:none;font-family:Arial" transform="matrix(0,-1,1,0,0,0)" clip-path="url(#xAxisClipPath)" y="1185">2010-11</text><text x="-1240" style="font-size:28px;line-height:125%;fill:#000000;fill-opacity:1;stroke:none;font-family:Arial" transform="matrix(0,-1,1,0,0,0)" clip-path="url(#xAxisClipPath)" y="1225">2011-12</text><text x="-1240" style="font-size:28px;line-height:125%;fill:#000000;fill-opacity:1;stroke:none;font-family:Arial" transform="matrix(0,-1,1,0,0,0)" clip-path="url(#xAxisClipPath)" y="1265">2012-13</text><text x="-1240" style="font-size:28px;line-height:125%;fill:#000000;fill-opacity:1;stroke:none;font-family:Arial" transform="matrix(0,-1,1,0,0,0)" clip-path="url(#xAxisClipPath)" y="1305">2013-14</text><text x="-1240" style="font-size:28px;line-height:125%;fill:#000000;fill-opacity:1;stroke:none;font-family:Arial" transform="matrix(0,-1,1,0,0,0)" clip-path="url(#xAxisClipPath)" y="1345">2014-15</text><text x="-1240" style="font-size:28px;line-height:125%;fill:#000000;fill-opacity:1;stroke:none;font-family:Arial" transform="matrix(0,-1,1,0,0,0)" clip-path="url(#xAxisClipPath)" y="1385">2015-16</text><text y="58" style="font-size:48px;line-height:125%;fill:#000000;fill-opacity:1;stroke:none;font-family:Arial" x="292">Dover Athletic Overall League Positions</text></g></svg>
